<svg width="35" height="35" viewBox="0 0 35 35" fill="none" xmlns="http://www.w3.org/2000/svg">
<circle cx="17.5" cy="17.5" r="17.5" fill="white"/>
<path d="M10 15L11.5 10.5H22.5L24 15M22.5 20C22.1022 20 21.7206 19.842 21.4393 19.5607C21.158 19.2794 21 18.8978 21 18.5C21 18.1022 21.158 17.7206 21.4393 17.4393C21.7206 17.158 22.1022 17 22.5 17C22.8978 17 23.2794 17.158 23.5607 17.4393C23.842 17.7206 24 18.1022 24 18.5C24 18.8978 23.842 19.2794 23.5607 19.5607C23.2794 19.842 22.8978 20 22.5 20ZM11.5 20C11.1022 20 10.7206 19.842 10.4393 19.5607C10.158 19.2794 10 18.8978 10 18.5C10 18.1022 10.158 17.7206 10.4393 17.4393C10.7206 17.158 11.1022 17 11.5 17C11.8978 17 12.2794 17.158 12.5607 17.4393C12.842 17.7206 13 18.1022 13 18.5C13 18.8978 12.842 19.2794 12.5607 19.5607C12.2794 19.842 11.8978 20 11.5 20ZM23.92 10C23.72 9.42 23.16 9 22.5 9H11.5C10.84 9 10.28 9.42 10.08 10L8 16V24C8 24.2652 8.10536 24.5196 8.29289 24.7071C8.48043 24.8946 8.73478 25 9 25H10C10.2652 25 10.5196 24.8946 10.7071 24.7071C10.8946 24.5196 11 24.2652 11 24V23H23V24C23 24.2652 23.1054 24.5196 23.2929 24.7071C23.4804 24.8946 23.7348 25 24 25H25C25.2652 25 25.5196 24.8946 25.7071 24.7071C25.8946 24.5196 26 24.2652 26 24V16L23.92 10Z" fill="#0085FF"/>
</svg>
